<svg xmlns="http://www.w3.org/2000/svg" viewBox="0 0 870.24 416.73"><g id="Слой_71_копия_" data-name="Слой 71 (копия)"><path d="M258.89,382.71c-14,24.92-30.66,49.2-51.11,70.28,20.45-4.47,43.45,14.06,47.92,31.95a83.93,83.93,0,0,1-1.28,48.56c-6.39,19.81-10.86,39-21.72,56.86-26.84,46-69,93.93-125.87,95.84C77.44,687.48,27,672.15,39.1,631.89c3.84-13.41,9.59-30,18.53-40.89,4.47-6.39,30.67-26.83,31.95-7.66.64,1.91-3.84,8.94-3.84,10.86a97.94,97.94,0,0,0-4.47,23c-.64,13.42.64,32.59,16.61,35.78,24.92,3.83,45.37-35.78,56.87-51.75,21.08-28.76,43.45-63.26,51.75-99,7.67-30-12.78-22.36-31.94-11.5-11.51,5.75-28.76,19.81-42.17,16.61-12.14-2.55-14.7-16-11.51-25.55s17.89-21.09,25.56-29.4L161.14,437c2.55-2.56,4.47-2.56,6.39-5.75,0-.64-1.28-3.83-.64-5.11,6.39-16.61,22.36-30,31.94-45.37,7.67-12.77,16-26.19,23-39.61,1.91-3.83,8.94-25.56,7.66-28.75-1.91-3.2-6.39-3.2-9.58-3.83-26.2-1.92-53.67,24.28-69,40.89-7,7-14.69,12.14-20.44,19.8-3.83,3.84-7,10.87-12.78,11.5-13.42,1.92-12.78-16.61-9.58-24.91,8.3-22.37,31.3-31.95,47.28-47.28,23-21.09,127.78-71.56,130.34-5.75C287,330.32,272.31,359.07,258.89,382.71ZM239.73,532.22c-4.48,19.17-19.17,37.06-28.12,54.31C204,601.87,190.53,615.28,179,629.34,186.69,620.39,226.31,594.2,239.73,532.22Z" transform="translate(-37.25 -270.17)" style="fill:#d7ecf4"/><path d="M441.67,281h47.86l26.64,246.09H473.72l-9.48-137.27c-1.65-25.13-3.61-49.67-4.81-76.61h-1.51C446,340,435,364,422.4,389.78L354.67,527.05H309.82Zm-62,145.85H490l-7.22,31H372.13Z" transform="translate(-37.25 -270.17)" style="fill:#d7ecf4"/><path d="M667.05,281h45l19.41,123.12,7.3,47.41h1.51l24.61-47.41L832.32,281h45L828.1,527.05H789.72l24.23-118c5-23.48,13.4-54.64,20.17-77.37h-1.28l-30,55.69L737.64,503H719l-20.32-115.6-8.13-55.69h-1.28c-2.63,23-5.72,54.34-10.16,77.37l-23.78,118H617.83Z" transform="translate(-37.25 -270.17)" style="fill:#d7ecf4"/><path d="M272.44,584.4h27.35c19.63,0,31.75,7.86,31.75,22.64,0,13.89-11.56,23.1-22.86,25.69l-.11.63c10.57,2.41,18.76,9.06,18.76,20.8,0,22.78-18.17,32.75-42.5,32.75H251.94Zm11.3,92.93c19.41,0,31.78-6.7,31.78-22.53,0-10.36-8.32-17.47-23.42-17.47H274l-8.16,40Zm6.7-48.77c19.48,0,28.71-8.16,28.71-19.72,0-9.37-6.94-14.87-22.43-14.87h-14.1l-6.93,34.59Z" transform="translate(-37.25 -270.17)" style="fill:#d7ecf4"/><path d="M416.12,584.4h14L442,686.91H429.36L424,628c-.9-10.86-2-21.7-2.79-33.39h-.63C415.18,606.42,410,616.78,404.21,628l-30.29,58.87H360.45Zm-28.35,61h45l-2.2,9.47h-45.2Z" transform="translate(-37.25 -270.17)" style="fill:#d7ecf4"/><path d="M505.62,584.4h12.16l-10.12,50.66h.43l51.33-50.66h13.75l-38.33,39.44,23.29,63.07h-12.7l-19.74-55.35-21.41,20.91-7,34.44H485.12Z" transform="translate(-37.25 -270.17)" style="fill:#d7ecf4"/><path d="M624.17,584.4h56.51l-2.08,10.27H634.12l-6.59,33.2H665.2l-2.09,10.27H625.64l-7.93,38.5h45.92l-2.08,10.27H603.66Z" transform="translate(-37.25 -270.17)" style="fill:#d7ecf4"/><path d="M734,584.4h28.1c19.12,0,32,6.79,32,23.9,0,23-18.85,35.13-41.72,35.13h-18l-8.65,43.48H713.46Zm17.77,49.22c19.55,0,30.26-9.12,30.26-23.74,0-11.25-7.88-15.67-23-15.67H744l-7.68,39.41Zm-.54,7.43,9.32-7.16,21.39,53h-13Z" transform="translate(-37.25 -270.17)" style="fill:#d7ecf4"/><path d="M852.52,646.85,835.84,584.4h12.51l7,29.5c1.74,7.61,3.27,14.46,5.11,22.29H861c4.75-7.63,9.17-14.9,14-22.41l19.39-29.38h13l-42.81,62.45-8.07,40.06h-12.1Z" transform="translate(-37.25 -270.17)" style="fill:#d7ecf4"/></g></svg>